<?xml version="1.0" standalone="no"?>
<!DOCTYPE svg PUBLIC "-//W3C//DTD SVG 20010904//EN"
 "http://www.w3.org/TR/2001/REC-SVG-20010904/DTD/svg10.dtd">
<svg version="1.0" xmlns="http://www.w3.org/2000/svg"
 width="587.000000pt" height="584.000000pt" viewBox="0 0 587.000000 584.000000"
 preserveAspectRatio="xMidYMid meet">

<g transform="translate(0.000000,584.000000) scale(0.100000,-0.100000)"
fill="#000000" stroke="none">
<path d="M0 2920 l0 -2920 2935 0 2935 0 0 2920 0 2920 -605 0 -606 0 23 -31
23 -31 3 -904 2 -904 454 0 453 0 34 -23 c19 -12 42 -38 52 -57 16 -33 17
-125 14 -1670 -3 -1828 3 -1670 -74 -1824 -49 -98 -172 -220 -270 -269 -148
-73 36 -68 -2468 -65 l-2250 3 -67 26 c-210 82 -348 233 -407 449 -21 74 -21
78 -21 2650 l0 2575 25 38 26 37 -106 0 -105 0 0 -2920z"/>
<path d="M420 3120 l0 -2491 21 -62 c36 -107 102 -177 214 -229 l50 -23 1938
-3 1939 -2 -21 29 c-37 52 -81 155 -96 227 -13 59 -15 411 -15 2557 l0 2487
-2015 0 -2015 0 0 -2490z m2949 1842 c93 -47 100 -163 14 -219 -25 -17 -85
-18 -948 -18 -863 0 -923 1 -948 18 -39 25 -60 62 -60 107 0 47 22 84 66 110
31 19 58 20 937 20 842 0 907 -1 939 -18z m-571 -748 c41 -8 109 -68 127 -111
40 -96 -7 -206 -107 -248 -152 -63 -314 107 -239 253 44 86 125 125 219 106z
m-700 -252 c12 -4 151 -135 307 -292 l284 -284 155 156 c165 167 194 186 257
168 21 -6 118 -96 309 -288 235 -235 278 -284 284 -314 14 -76 -47 -148 -125
-148 -50 0 -82 26 -309 254 l-195 196 -100 -100 -99 -99 26 -28 c35 -38 48
-66 48 -103 0 -86 -98 -147 -173 -109 -12 6 -176 165 -364 352 -188 188 -344
339 -347 337 -3 -3 -153 -152 -333 -331 -180 -179 -341 -335 -357 -347 -82
-62 -211 19 -192 121 5 29 71 100 413 442 223 224 415 411 427 415 25 10 52
11 84 2z m5 -1646 c46 -19 69 -49 74 -99 6 -55 -15 -100 -60 -124 -30 -17 -77
-18 -634 -18 -593 0 -602 0 -630 21 -86 63 -75 177 22 220 45 20 1181 20 1228
0z m1908 -9 c19 -12 42 -40 53 -61 38 -77 -17 -159 -116 -171 -29 -3 -305 -5
-613 -3 -531 3 -561 4 -588 22 -58 40 -76 129 -35 181 43 55 35 54 674 55
l591 0 34 -23z m-1907 -621 c51 -21 76 -60 76 -117 0 -61 -35 -106 -95 -119
-56 -13 -1150 -13 -1197 0 -44 13 -85 58 -94 105 -9 47 27 109 75 129 52 21
1184 23 1235 2z m1903 -6 c87 -53 90 -162 6 -217 -25 -17 -72 -18 -598 -21
-313 -2 -590 0 -614 3 -32 5 -54 16 -78 40 -28 28 -33 40 -33 83 0 35 6 57 22
77 43 55 35 54 673 55 568 0 591 -1 622 -20z m-1884 -634 c88 -60 69 -197 -31
-226 -25 -8 -223 -10 -624 -8 -574 3 -587 3 -615 24 -15 11 -36 37 -47 58 -16
32 -17 44 -7 75 13 46 49 81 93 91 18 5 296 8 618 7 557 -2 586 -3 613 -21z
m1894 -2 c15 -11 36 -37 46 -57 31 -63 -3 -139 -76 -166 -38 -15 -1157 -15
-1209 -1 -54 15 -88 64 -88 125 0 42 4 52 35 81 19 18 45 35 57 37 13 3 289 4
615 3 581 -1 592 -1 620 -22z"/>
<path d="M4712 2148 l3 -1563 28 -57 c39 -79 104 -143 185 -181 60 -29 76 -32
157 -32 77 1 99 5 151 29 77 35 154 112 191 191 l28 60 3 1558 2 1557 -375 0
-375 0 2 -1562z"/>
</g>
</svg>
